<svg width="24" height="24" viewBox="0 0 24 24" fill="none" xmlns="http://www.w3.org/2000/svg">
<mask id="mask0_393_6414" style="mask-type:alpha" maskUnits="userSpaceOnUse" x="0" y="0" width="24" height="24">
<rect x="24" y="24" width="24" height="24" transform="rotate(180 24 24)" fill="#D9D9D9"/>
</mask>
<g mask="url(#mask0_393_6414)">
<path d="M12 13.1996L15.9 9.29961C16.0833 9.11628 16.3166 9.02461 16.6 9.02461C16.8833 9.02461 17.1166 9.11628 17.3 9.29961C17.4833 9.48294 17.575 9.71628 17.575 9.99961C17.575 10.2829 17.4833 10.5163 17.3 10.6996L12.7 15.2996C12.5 15.4996 12.2666 15.5996 12 15.5996C11.7333 15.5996 11.5 15.4996 11.3 15.2996L6.69995 10.6996C6.51662 10.5163 6.42495 10.2829 6.42495 9.99961C6.42495 9.71628 6.51662 9.48294 6.69995 9.29961C6.88328 9.11628 7.11662 9.02461 7.39995 9.02461C7.68328 9.02461 7.91662 9.11628 8.09995 9.29961L12 13.1996Z" fill="white"/>
</g>
</svg>
