<svg version="1.0" xmlns="http://www.w3.org/2000/svg" width="20" height="20" viewBox="0 0 225.000000 225.000000" preserveAspectRatio="xMidYMid meet">
    <g transform="translate(0.000000,225.000000) scale(0.100000,-0.100000)" fill="#000000" stroke="none">
        <path d="M2176 2085 c-206 -124 -757 -550 -1086 -841 -146 -129 -214 -202 -267 -288 l-41 -68 53 -53 c29 -29 63 -71 75 -93 l23 -41 89 45 c92 46 150 95 332 283 307 316 938 1091 888 1091 -4 0 -34 -16 -66 -35z"/>
        <path d="M563 796 c-105 -33 -168 -100 -254 -270 -34 -66 -77 -142 -96 -168 -42 -58 -127 -132 -173 -152 l-34 -14 68 -21 c258 -80 482 -46 621 93 58 58 123 181 148 278 l15 58 -38 62 c-20 35 -61 82 -89 106 -57 46 -90 52 -168 28z"/>
    </g>
</svg>
